<?xml version="1.0" standalone="no"?>
<!DOCTYPE svg PUBLIC "-//W3C//DTD SVG 20010904//EN"
 "http://www.w3.org/TR/2001/REC-SVG-20010904/DTD/svg10.dtd">
<svg version="1.0" xmlns="http://www.w3.org/2000/svg"
 width="1017.000000pt" height="1017.000000pt" viewBox="0 0 1017.000000 1017.000000"
 preserveAspectRatio="xMidYMid meet">
<metadata>
Created by potrace 1.11, written by Peter Selinger 2001-2013
</metadata>
<g transform="translate(0.000000,1017.000000) scale(0.100000,-0.100000)"
fill="#000000" stroke="none">
<path d="M5018 10102 c-308 -318 -493 -734 -523 -1175 l-7 -98 -56 -41 c-209
-152 -318 -365 -306 -595 5 -85 17 -85 -156 -1 -300 145 -639 254 -933 300
-62 9 -90 9 -145 -2 -105 -20 -291 -76 -415 -124 -100 -39 -337 -151 -337
-159 0 -2 21 0 48 4 26 4 97 8 157 8 179 1 344 -42 464 -120 l52 -34 -108 -6
c-59 -4 -137 -12 -173 -19 -202 -37 -433 -146 -645 -306 -81 -60 -167 -135
-162 -140 1 -2 27 4 57 12 80 22 284 30 388 14 154 -22 342 -88 342 -119 0 -4
-31 -11 -70 -15 -99 -9 -270 -43 -370 -73 -102 -30 -313 -130 -428 -201 -80
-49 -246 -172 -240 -177 2 -1 50 -12 108 -25 153 -32 386 -112 539 -186 127
-61 160 -73 126 -44 -8 7 -15 16 -15 21 0 5 334 8 782 7 l783 -3 22 -40 c30
-54 66 -116 113 -195 21 -36 54 -92 73 -125 90 -159 157 -276 192 -335 21 -36
54 -92 72 -125 19 -33 54 -94 78 -135 25 -41 67 -115 96 -165 54 -96 105 -184
161 -280 19 -33 75 -130 123 -215 49 -85 98 -171 110 -190 12 -19 41 -69 65
-110 24 -41 55 -95 70 -120 15 -25 65 -111 111 -192 46 -81 100 -176 121 -210
20 -35 52 -90 70 -123 39 -68 102 -178 142 -245 14 -25 40 -70 57 -100 16 -30
47 -83 67 -118 20 -34 75 -129 121 -210 47 -81 95 -165 108 -187 49 -81 161
-273 227 -390 108 -190 159 -276 166 -280 4 -2 23 24 42 58 19 34 52 91 73
127 21 36 54 93 74 128 20 34 77 133 127 220 50 86 119 207 154 267 34 61 73
126 85 145 12 19 60 101 106 182 46 81 100 176 121 210 36 62 66 114 145 253
22 39 52 90 66 115 15 25 41 70 58 100 16 30 48 84 69 120 21 36 49 83 61 105
12 22 41 72 64 110 23 39 55 95 72 125 36 66 93 164 139 240 18 30 47 80 64
110 16 30 35 62 40 70 8 13 109 187 227 395 19 33 51 88 71 122 21 35 63 109
96 165 87 153 129 226 168 293 19 33 79 137 132 230 54 94 102 174 107 180 17
18 9 25 -31 25 -44 0 -44 1 -31 48 9 29 7 33 -15 38 -13 3 -24 9 -24 13 0 4
-14 12 -30 18 -28 11 -60 2 -338 -92 -301 -101 -759 -266 -837 -302 -26 -12
-108 -87 -235 -218 -599 -615 -620 -635 -620 -609 0 40 -18 63 -55 70 -19 3
-35 9 -35 13 0 12 96 313 140 436 126 358 290 711 427 920 296 450 608 655
1240 816 l132 34 13 65 c16 84 16 250 -1 320 -35 147 -135 289 -282 401 l-79
60 0 81 c0 250 -97 576 -246 826 -103 173 -319 435 -331 402 -38 -97 -172
-307 -329 -515 -63 -82 -171 -226 -241 -318 l-128 -168 -394 0 -393 -1 -139
184 c-76 101 -183 242 -237 313 -132 175 -216 300 -277 417 l-51 97 -56 -57z
m-408 -2237 c418 -142 694 -366 945 -765 88 -141 218 -407 303 -621 67 -169
232 -655 232 -685 0 -8 -8 -14 -19 -14 -28 0 -69 -37 -73 -66 -3 -28 19 -49
-556 539 l-262 269 -142 55 c-216 83 -418 154 -800 283 l-346 117 44 83 c83
155 248 418 328 523 l35 46 -49 103 c-37 78 -100 243 -100 263 0 6 345 -91
460 -130z"/>
<path d="M5125 7280 c-134 -29 -185 -185 -92 -283 82 -88 220 -66 275 43 12
24 22 58 22 74 0 41 -36 112 -69 136 -35 24 -97 38 -136 30z"/>
<path d="M7155 7280 c-65 -14 -117 -63 -134 -127 -31 -111 79 -230 192 -209
76 14 147 96 147 170 0 41 -36 112 -69 136 -35 24 -97 38 -136 30z"/>
</g>
</svg>
